<svg xmlns="http://www.w3.org/2000/svg" width="36" height="36.025" viewBox="0 0 36 36.025" fill="none">
  <path d="M 36 18 C 36 14.55 35.85 11.4 35.325 9.6 C 34.725 7.5 34.05 5.55 32.175 3.825 C 29.925 1.8 27.9 1.125 24.975 0.525 C 22.8 0.075 20.25 0 18.675 0 L 17.25 0 C 15.675 0 13.125 0.075 10.95 0.525 C 8.025 1.125 6 1.8 3.75 3.825 C 1.95 5.55 1.35 7.5 0.675 9.6 C 0.15 11.4 0 14.55 0 18 C 0 21.45 0.15 24.6 0.675 26.4 C 1.275 28.5 1.95 30.45 3.825 32.175 C 6.075 34.2 8.1 34.875 11.025 35.475 C 13.575 36 16.575 36 18 36 C 19.425 36.075 22.425 36 24.975 35.475 C 27.9 34.875 29.925 34.2 32.175 32.175 C 34.05 30.45 34.725 28.5 35.325 26.4 C 35.85 24.6 36 21.45 36 18 Z" fill="currentColor" fill-rule="nonzero"></path>
</svg>